<?xml version="1.0" encoding="utf-8"?>
<!-- Generator: Adobe Illustrator 22.1.0, SVG Export Plug-In . SVG Version: 6.00 Build 0)  -->
<svg version="1.1" xmlns="http://www.w3.org/2000/svg" xmlns:xlink="http://www.w3.org/1999/xlink" x="0px" y="0px"
	 viewBox="0 0 3820 470" style="enable-background:new 0 0 3820 470;" xml:space="preserve">
<style type="text/css">
	.st0{display:none;}
	.st1{display:inline;fill:#121212;}
	.st2{display:inline;}
	.st3{fill:url(#SVGID_1_);}
	.st4{fill:url(#SVGID_2_);}
	.st5{fill:url(#SVGID_3_);}
	.st6{fill:url(#SVGID_4_);}
	.st7{fill:url(#SVGID_5_);}
	.st8{fill:url(#SVGID_6_);}
	.st9{fill:url(#SVGID_7_);}
	.st10{fill:url(#SVGID_8_);}
	.st11{fill:url(#SVGID_9_);}
	.st12{fill:url(#SVGID_10_);}
	.st13{fill:url(#SVGID_11_);}
	.st14{fill:url(#SVGID_12_);}
	.st15{fill:url(#SVGID_13_);}
	.st16{fill:url(#SVGID_14_);}
	.st17{fill:url(#SVGID_15_);}
	.st18{fill:url(#SVGID_16_);}
	.st19{fill:url(#SVGID_17_);}
	.st20{fill:url(#SVGID_18_);}
	.st21{fill:url(#SVGID_19_);}
	.st22{fill:url(#SVGID_20_);}
	.st23{fill:url(#SVGID_21_);}
	.st24{fill:url(#SVGID_22_);}
	.st25{fill:url(#SVGID_23_);}
	.st26{fill:url(#SVGID_24_);}
	.st27{fill:url(#SVGID_25_);}
	.st28{fill:url(#SVGID_26_);}
</style>
<g id="Calque_2" class="st0">
	<rect class="st1" width="3820" height="470"/>
</g>
<g id="Calque_1" class="st0">
	<g class="st2">
		<linearGradient id="SVGID_1_" gradientUnits="userSpaceOnUse" x1="8.17" y1="330.425" x2="525.89" y2="330.425">
			<stop  offset="0" style="stop-color:#39B54A"/>
			<stop  offset="2.436531e-02" style="stop-color:#36B34A"/>
			<stop  offset="0.2329" style="stop-color:#1EA448"/>
			<stop  offset="0.4549" style="stop-color:#0D9A46"/>
			<stop  offset="0.6977" style="stop-color:#039445"/>
			<stop  offset="1" style="stop-color:#009245"/>
		</linearGradient>
		<path class="st3" d="M525.9,292.4v79.3c0,42.5-13.5,70.1-40.6,82.8c-10.1,5.5-30.8,8.2-61.8,8.2H99.2c-38.5,0-63.9-10.3-76.4-30.8
			c-8.9-7.4-13.7-30.1-14.6-68.2V307c0-46.3,5.9-73.9,17.8-82.8c15.9-17.3,37-26,63.4-26h33.9c9.7,1.3,14.6,6.1,14.6,14.6v108.8
			c0,20.5,7.1,30.8,21.2,30.8H401c11.8,0,17.8-8.7,17.8-26v-4.8c0-15.2-7.1-22.8-21.3-22.8h-27.6c-37.6,0-61.9-9.7-72.9-29.2
			c-10.8-14-16.2-30.2-16.2-48.8v-3.2c0-8.7,5.4-13,16.2-13h162.3c30,0,51.6,18.9,64.7,56.8C525.3,273.1,525.9,283.5,525.9,292.4z"
			/>
		<linearGradient id="SVGID_2_" gradientUnits="userSpaceOnUse" x1="8.17" y1="61.1" x2="509.41" y2="61.1">
			<stop  offset="0" style="stop-color:#39B54A"/>
			<stop  offset="2.436531e-02" style="stop-color:#36B34A"/>
			<stop  offset="0.2329" style="stop-color:#1EA448"/>
			<stop  offset="0.4549" style="stop-color:#0D9A46"/>
			<stop  offset="0.6977" style="stop-color:#039445"/>
			<stop  offset="1" style="stop-color:#009245"/>
		</linearGradient>
		<path class="st4" d="M8.2,92.6C8.2,56.3,19,32,40.5,19.7c11-7.6,21.9-11.4,32.7-11.4h420.1c10.8,0,16.2,4.3,16.2,13v29.2
			c0,22-16.2,42-48.5,59.9c-4,2.3-8.4,3.5-13,3.5H22.8C13,113.9,8.2,106.8,8.2,92.6z"/>
		
			<linearGradient id="SVGID_3_" gradientUnits="userSpaceOnUse" x1="1113.744" y1="337.3576" x2="4077.8005" y2="337.3576" gradientTransform="matrix(2.1645 -0.1923 0.1036 1.1662 -3090.6372 334.6729)">
			<stop  offset="0" style="stop-color:#E6E6E6;stop-opacity:0.3"/>
			<stop  offset="0.423" style="stop-color:#EFEFEF;stop-opacity:0.2154"/>
			<stop  offset="1" style="stop-color:#F2F2F2;stop-opacity:0.1"/>
		</linearGradient>
		<path class="st5" d="M485.3,454.4c27.1-12.7,40.6-40.3,40.6-82.7v-7c-131.3,31.6-253.4,64.4-365.2,97.9h262.8
			C454.6,462.6,475.2,459.9,485.3,454.4z"/>
	</g>
	<g class="st2">
		<linearGradient id="SVGID_4_" gradientUnits="userSpaceOnUse" x1="654.93" y1="235.47" x2="1219.9" y2="235.47">
			<stop  offset="0" style="stop-color:#39B54A"/>
			<stop  offset="2.436531e-02" style="stop-color:#36B34A"/>
			<stop  offset="0.2329" style="stop-color:#1EA448"/>
			<stop  offset="0.4549" style="stop-color:#0D9A46"/>
			<stop  offset="0.6977" style="stop-color:#039445"/>
			<stop  offset="1" style="stop-color:#009245"/>
		</linearGradient>
		<path class="st6" d="M1213.6,52.4c-13.3-29.4-38.9-44.1-76.7-44.1H742.8c-58.5,0-87.8,29.3-87.8,87.8v280.3
			c0,56.4,25.5,84.7,76.4,84.7H914c19.2,0,35,0.5,47.2,1.6c7.6-1.1,22.2-1.6,43.8-1.6h131.9c9.3,0,19.1-0.5,29.5-1.6
			c35.7-11.2,53.6-36.2,53.6-75.1V88.2C1219.9,73.2,1217.8,61.3,1213.6,52.4z M1093.1,303.2c0,12.3-0.5,23.7-1.6,34.2
			c0,15-12.6,22.5-37.7,22.5H814.4c-20.5,0-30.8-10.3-30.8-30.8v-189c0-17.3,9.7-26,29.2-26h250.8c11,0.2,16.5,1.3,16.5,3.2
			c8.7,0,13,12.5,13,37.4V303.2z"/>
		
			<linearGradient id="SVGID_5_" gradientUnits="userSpaceOnUse" x1="1113.744" y1="329.3302" x2="4077.8005" y2="329.3302" gradientTransform="matrix(2.1645 -0.1923 0.1036 1.1662 -3090.6372 334.6729)">
			<stop  offset="0" style="stop-color:#E6E6E6;stop-opacity:0.3"/>
			<stop  offset="0.423" style="stop-color:#EFEFEF;stop-opacity:0.2154"/>
			<stop  offset="1" style="stop-color:#F2F2F2;stop-opacity:0.1"/>
		</linearGradient>
		<path class="st7" d="M731.3,461H914c19.2,0,35,0.5,47.2,1.6c7.6-1.1,22.2-1.6,43.8-1.6h131.9c9.3,0,19.1-0.5,29.5-1.6
			c35.7-11.2,53.6-36.2,53.6-75.1V222.9c-42.8,7.4-85.1,14.9-126.8,22.6v57.7c0,12.3-0.5,23.7-1.6,34.2c0,15-12.6,22.5-37.7,22.5
			H814.4c-20.5,0-30.8-10.2-30.8-30.8v-22.7c-43.7,9.3-86.6,18.6-128.7,28.1v41.8C654.9,432.8,680.4,461,731.3,461z"/>
	</g>
	<g class="st2">
		<linearGradient id="SVGID_6_" gradientUnits="userSpaceOnUse" x1="1285.8401" y1="235.47" x2="1900.27" y2="235.47">
			<stop  offset="0" style="stop-color:#39B54A"/>
			<stop  offset="2.436531e-02" style="stop-color:#36B34A"/>
			<stop  offset="0.2329" style="stop-color:#1EA448"/>
			<stop  offset="0.4549" style="stop-color:#0D9A46"/>
			<stop  offset="0.6977" style="stop-color:#039445"/>
			<stop  offset="1" style="stop-color:#009245"/>
		</linearGradient>
		<path class="st8" d="M1900.3,13.1c0,6.1-20,27.7-59.9,64.7c-21.7,21.7-41.4,41.4-59.2,59.3c-80.1,80.5-120.2,122.2-120.2,124.9
			l-1.6,16.2V435c0,18.4-5.9,27.6-17.8,27.6H1556c-18.4,0-27.6-4.9-27.6-14.6V294.3c0-29.4-10.8-50.9-32.3-64.7
			c0-2.1-6.4-8.6-19.3-19.3c0-1.4-8.3-9.9-24.9-25.6c-3.3-3-6.8-6.3-10.7-9.9c-88.8-89.4-140.6-142.2-155.3-158.5v-3.2
			c0-3.2,5.9-4.8,17.8-4.8h118.3c30.4,0,55.7,13.4,75.8,40.3c55.2,55,83.7,82.4,85.6,82.4c4.4,2.3,7.7,3.5,9.8,3.5
			c9.9,0,28.2-15.6,54.8-46.9c1.7,0,15.8-13.5,42.2-40.6c19.9-25.8,44.7-38.7,74.5-38.7h122.7C1895.3,8.3,1899.6,9.9,1900.3,13.1z"
			/>
		
			<linearGradient id="SVGID_7_" gradientUnits="userSpaceOnUse" x1="1113.744" y1="333.3638" x2="4077.8005" y2="333.3638" gradientTransform="matrix(2.1645 -0.1923 0.1036 1.1662 -3090.6372 334.6729)">
			<stop  offset="0" style="stop-color:#E6E6E6;stop-opacity:0.3"/>
			<stop  offset="0.423" style="stop-color:#EFEFEF;stop-opacity:0.2154"/>
			<stop  offset="1" style="stop-color:#F2F2F2;stop-opacity:0.1"/>
		</linearGradient>
		<path class="st9" d="M1476.7,210.3c12.9,10.8,19.3,17.2,19.3,19.3c21.6,13.7,32.3,35.3,32.3,64.7V448c0,9.7,9.2,14.6,27.6,14.6
			h85.6c11.8,0,17.8-9.2,17.8-27.6V278.1l1.6-16.2c0-2.8,40.1-44.4,120.2-124.9c-112.3,15.1-222.2,31-329.3,47.7
			C1468.4,200.3,1476.7,208.9,1476.7,210.3z"/>
	</g>
	<g class="st2">
		<linearGradient id="SVGID_8_" gradientUnits="userSpaceOnUse" x1="1920.5601" y1="235.47" x2="2527.3799" y2="235.47">
			<stop  offset="0" style="stop-color:#39B54A"/>
			<stop  offset="2.436531e-02" style="stop-color:#36B34A"/>
			<stop  offset="0.2329" style="stop-color:#1EA448"/>
			<stop  offset="0.4549" style="stop-color:#0D9A46"/>
			<stop  offset="0.6977" style="stop-color:#039445"/>
			<stop  offset="1" style="stop-color:#009245"/>
		</linearGradient>
		<path class="st10" d="M2527.4,453.1v3.2c0,4.2-6.4,6.3-19.3,6.3h-48.8c-45.6,0-74.3-14.1-85.9-42.2
			c-11.6-23.7-21.9-35.5-30.8-35.5h-3.5c-13.1,0-21.1-0.6-24.1-1.9c-12.1,1.3-22.9,1.9-32.7,1.9c-19.4,0-45.9-0.6-79.3-1.9
			c-4.4-1.5-6.7-3.1-6.7-4.8v-4.8c18.8-46.5,37.7-69.8,56.8-69.8c7-4.8,19.5-8.7,37.4-11.4c4.2-3,6.3-6.8,6.3-11.4v-4.8
			c0-1.7-16.7-34.7-50.1-98.9c-9.1-17.3-16.2-26-21.2-26h-1.6c-7.6,0-21.7,23.3-42.2,69.8c-59.4,110.1-95.6,178.8-108.7,206.1
			c-15.7,23.7-41.7,35.5-78,35.5h-51.7c-15.2,0-22.8-2.1-22.8-6.3c0-3.5,62.6-123.5,187.7-359.8c1.8-3.4,3.6-6.8,5.4-10.2
			c22.8-52,49.3-78,79.6-78h82.8c17.8,0,29.6,10.9,35.5,32.7c2.3,3.8,8.1,14.4,17.4,31.8c17.5,33,47.4,90.5,89.8,172.4
			c18.8,32.8,53.5,98.3,104,196.6C2525.8,444,2527.4,447.8,2527.4,453.1z"/>
		
			<linearGradient id="SVGID_9_" gradientUnits="userSpaceOnUse" x1="1113.744" y1="359.6001" x2="4077.8005" y2="359.6001" gradientTransform="matrix(2.1645 -0.1923 0.1036 1.1662 -3090.6372 334.6729)">
			<stop  offset="0" style="stop-color:#E6E6E6;stop-opacity:0.3"/>
			<stop  offset="0.423" style="stop-color:#EFEFEF;stop-opacity:0.2154"/>
			<stop  offset="1" style="stop-color:#F2F2F2;stop-opacity:0.1"/>
		</linearGradient>
		<path class="st11" d="M1943.4,462.6h51.7c36.4,0,62.3-11.8,78-35.5c13.1-27.3,49.3-96,108.7-206.1c20.5-46.5,34.6-69.7,42.2-69.7
			h1.6c5.1,0,12.2,8.7,21.2,26c33.4,64.3,50.1,97.2,50.1,98.9v4.8c0,4.7-2.1,8.5-6.3,11.4c-18,2.7-30.4,6.6-37.4,11.4
			c-19,0-37.9,23.3-56.8,69.7v4.8c0,1.7,2.2,3.3,6.7,4.8c33.4,1.3,59.8,1.9,79.3,1.9c9.7,0,20.6-0.6,32.7-1.9c3,1.3,11,1.9,24.1,1.9
			h3.5c8.9,0,19.1,11.8,30.8,35.5c11.6,28.1,40.3,42.2,85.9,42.2h48.8c12.9,0,19.3-2.1,19.3-6.3v-3.2c0-5.3-1.6-9.1-4.8-11.4
			c-50.5-98.3-85.2-163.8-104-196.6c-42.3-81.9-72.3-139.4-89.8-172.4c-74.3,7.5-147.9,15.4-220.6,23.7
			c-125.1,236.3-187.7,356.2-187.7,359.8C1920.6,460.5,1928.2,462.6,1943.4,462.6z"/>
	</g>
	<g class="st2">
		<linearGradient id="SVGID_10_" gradientUnits="userSpaceOnUse" x1="2599.03" y1="235.47" x2="3157.97" y2="235.47">
			<stop  offset="0" style="stop-color:#39B54A"/>
			<stop  offset="2.436531e-02" style="stop-color:#36B34A"/>
			<stop  offset="0.2329" style="stop-color:#1EA448"/>
			<stop  offset="0.4549" style="stop-color:#0D9A46"/>
			<stop  offset="0.6977" style="stop-color:#039445"/>
			<stop  offset="1" style="stop-color:#009245"/>
		</linearGradient>
		<path class="st12" d="M3067.9,292.7c34.7,70.6,61.4,121.7,80.2,153.4l1.6,8.2c-2.1,5.1-4.2,7.8-6.3,8.2h-112.9
			c-11.2,0-27.1-21.8-47.6-65.3c-36.4-68.3-58.1-106.4-65.3-114.5c-5.5-3.2-10.9-4.8-16.2-4.8h-142.4c-13.1,0-19.6,12.5-19.6,37.4
			v134.1c0,8.7-4.3,13-13,13h-112.9c-9.7,0-14.6-6-14.6-18.1V266.4c0-33.6,14.1-57,42.5-70.1c12.1-6.6,25.7-9.8,40.9-9.8h57.1
			c62.8,0,152.2-0.5,268.2-1.6c8.3,0,13.1-6.5,14.6-19.6v-29.5c0-14.2-9.3-21.2-27.9-21.2h-377.3c-12.1,0-18.1-4.9-18.1-14.6v-5.1
			c0-19,3.8-35.1,11.3-48.3c6.2-10.9,15-19.8,26.4-26.8c18.8-7.6,34.6-11.4,47.2-11.4h397.3c9.3,0,17.8,1,25.6,2.9
			c24.9,6.1,41.9,22.1,51.1,47.8v81.8c0,65.5-4.9,102.5-14.6,111c-8.7,17.5-29.4,26.3-62.1,26.3
			C3072.4,281.5,3067.9,286.4,3067.9,292.7z"/>
		
			<linearGradient id="SVGID_11_" gradientUnits="userSpaceOnUse" x1="1113.744" y1="382.9322" x2="4077.8005" y2="382.9322" gradientTransform="matrix(2.1645 -0.1923 0.1036 1.1662 -3090.6372 334.6729)">
			<stop  offset="0" style="stop-color:#E6E6E6;stop-opacity:0.3"/>
			<stop  offset="0.423" style="stop-color:#EFEFEF;stop-opacity:0.2154"/>
			<stop  offset="1" style="stop-color:#F2F2F2;stop-opacity:0.1"/>
		</linearGradient>
		<path class="st13" d="M2599,99.9c0,9.7,6,14.6,18.1,14.6h377.3c18.6,0,27.9,7.1,27.9,21.2v29.5c-1.5,13.1-6.3,19.7-14.6,19.7
			c-116,1.1-205.4,1.6-268.2,1.6h-57.1c-15.2,0-28.9,3.3-40.9,9.8c-28.3,13.1-42.5,36.5-42.5,70.1v178.2c0,12,4.9,18.1,14.6,18.1
			h112.9c8.7,0,13-4.3,13-13V315.5c0-24.9,6.5-37.4,19.7-37.4h142.4c5.3,0,10.7,1.6,16.2,4.8c7.2,8,29,46.2,65.3,114.5
			c20.5,43.5,36.4,65.3,47.6,65.3h112.9c2.1-0.4,4.2-3.2,6.3-8.2l-1.6-8.2c-18.8-31.7-45.5-82.9-80.2-153.4
			c0-6.3,4.4-11.2,13.3-14.6c32.8,0,53.5-8.8,62.1-26.3c9.7-8.5,14.6-45.4,14.6-111V59c-9.2-25.8-26.2-41.7-51.1-47.8
			c-161.9,9.2-327.7,20.9-496.5,35.3c-7.6,13.2-11.3,29.3-11.3,48.3V99.9z"/>
	</g>
	<g class="st2">
		<linearGradient id="SVGID_12_" gradientUnits="userSpaceOnUse" x1="3286.0554" y1="235.4724" x2="3813.2949" y2="235.4724">
			<stop  offset="0" style="stop-color:#39B54A"/>
			<stop  offset="2.436531e-02" style="stop-color:#36B34A"/>
			<stop  offset="0.2329" style="stop-color:#1EA448"/>
			<stop  offset="0.4549" style="stop-color:#0D9A46"/>
			<stop  offset="0.6977" style="stop-color:#039445"/>
			<stop  offset="1" style="stop-color:#009245"/>
		</linearGradient>
		<path class="st14" d="M3745.1,8.3h-442.9c-10.8,0-16.2,4.3-16.2,13v26c0,7.6,2.1,16.3,6.3,26c18.2,27.1,37.7,40.6,58.7,40.6h306.6
			c16.3,0,24.4,10.3,24.4,30.8v176.9c0,20.5-6,30.8-18.1,30.8h-230.2c-13.1,0-19.7-6.4-19.7-19.3V224.2c0-17.3-5.9-26-17.8-26h-29.2
			c-11.6,0-25.2,2.6-40.6,7.9c-27.1,15.6-40.6,35.2-40.6,58.7V448c0,9.7,8.7,14.6,26,14.6h413.7c9.1,0,20.4-1.1,33.9-3.2
			c35.7-15.4,53.6-37.6,53.6-66.6V79.6c0-5.1-0.5-10.5-1.6-16.2C3796.7,26.7,3774.5,8.3,3745.1,8.3z"/>
		
			<linearGradient id="SVGID_13_" gradientUnits="userSpaceOnUse" x1="1113.744" y1="415.0133" x2="4077.8005" y2="415.0133" gradientTransform="matrix(2.1645 -0.1923 0.1036 1.1662 -3090.6372 334.6729)">
			<stop  offset="0" style="stop-color:#E6E6E6;stop-opacity:0.3"/>
			<stop  offset="0.423" style="stop-color:#EFEFEF;stop-opacity:0.2154"/>
			<stop  offset="1" style="stop-color:#F2F2F2;stop-opacity:0.1"/>
		</linearGradient>
		<path class="st15" d="M3745.1,8.3h-442.9c-10.8,0-16.2,4.3-16.2,13v26c0,7.6,2.1,16.3,6.3,26c18.2,27.1,37.7,40.6,58.7,40.6h306.6
			c16.3,0,24.4,10.3,24.4,30.8v176.9c0,20.5-6,30.8-18.1,30.8h-230.2c-13.1,0-19.7-6.4-19.7-19.3V224.2c0-17.3-5.9-26-17.8-26h-29.2
			c-11.6,0-25.2,2.6-40.6,7.9c-27.1,15.6-40.6,35.2-40.6,58.7V448c0,9.7,8.7,14.6,26,14.6h413.7c9.1,0,20.4-1.1,33.9-3.2
			c35.7-15.4,53.6-37.6,53.6-66.6V79.6c0-5.1-0.5-10.5-1.6-16.2C3796.7,26.7,3774.5,8.3,3745.1,8.3z"/>
	</g>
</g>
<g id="Calque_6">
	<g>
		<linearGradient id="SVGID_14_" gradientUnits="userSpaceOnUse" x1="7.33" y1="330.0175" x2="525.46" y2="330.0175">
			<stop  offset="0" style="stop-color:#39B54A"/>
			<stop  offset="2.436531e-02" style="stop-color:#36B34A"/>
			<stop  offset="0.2329" style="stop-color:#1EA448"/>
			<stop  offset="0.4549" style="stop-color:#0D9A46"/>
			<stop  offset="0.6977" style="stop-color:#039445"/>
			<stop  offset="1" style="stop-color:#009245"/>
		</linearGradient>
		<path class="st16" d="M525.5,277v111.6c0,40.7-33,73.7-73.7,73.7H81.5c-41,0-74.2-33.2-74.2-74.2V272.3
			c0-41.2,33.4-74.6,74.6-74.6H123c7.8,0,14.1,6.3,14.1,14.1v119.4c0,11.4,9.2,20.6,20.6,20.6h241.8c10.3,0,18.7-8.3,18.7-18.6V317
			c0-10.3-8.4-18.6-18.7-18.6h-45.9c-40.6,0-73.4-32.9-73.4-73.4v-8.5c0-6.8,5.5-12.3,12.3-12.3h159.9
			C492.8,204.1,525.5,236.7,525.5,277z"/>
		<linearGradient id="SVGID_15_" gradientUnits="userSpaceOnUse" x1="7.3487" y1="60.5097" x2="508.9417" y2="60.5097">
			<stop  offset="0" style="stop-color:#39B54A"/>
			<stop  offset="2.436531e-02" style="stop-color:#36B34A"/>
			<stop  offset="0.2329" style="stop-color:#1EA448"/>
			<stop  offset="0.4549" style="stop-color:#0D9A46"/>
			<stop  offset="0.6977" style="stop-color:#039445"/>
			<stop  offset="1" style="stop-color:#009245"/>
		</linearGradient>
		<path class="st17" d="M434.1,113.3H20.4c-7.2,0-13.1-5.9-13.1-13.1V77.9c0-38.8,31.4-70.2,70.2-70.2H496c7.2,0,13,5.8,13,13v17.8
			C508.9,79.8,475.4,113.3,434.1,113.3z"/>
		<linearGradient id="SVGID_16_" gradientUnits="userSpaceOnUse" x1="141.39" y1="413.8075" x2="525.46" y2="413.8075">
			<stop  offset="0" style="stop-color:#E6E6E6;stop-opacity:0.3"/>
			<stop  offset="0.423" style="stop-color:#EFEFEF;stop-opacity:0.2154"/>
			<stop  offset="1" style="stop-color:#F2F2F2;stop-opacity:0.1"/>
		</linearGradient>
		<path class="st18" d="M141.4,462.3c96.2-26.6,225-60.1,384.1-97v23.3c0,40.7-33,73.7-73.7,73.7H141.4z"/>
	</g>
	<g>
		<linearGradient id="SVGID_17_" gradientUnits="userSpaceOnUse" x1="654.31" y1="235.1525" x2="1219.28" y2="235.1525">
			<stop  offset="0" style="stop-color:#39B54A"/>
			<stop  offset="2.436531e-02" style="stop-color:#36B34A"/>
			<stop  offset="0.2329" style="stop-color:#1EA448"/>
			<stop  offset="0.4549" style="stop-color:#0D9A46"/>
			<stop  offset="0.6977" style="stop-color:#039445"/>
			<stop  offset="1" style="stop-color:#009245"/>
		</linearGradient>
		<path class="st19" d="M1145.9,8H727.7c-40.5,0-73.4,32.9-73.4,73.4v307.5c0,40.6,32.9,73.4,73.4,73.4h418.1
			c40.5,0,73.4-32.9,73.4-73.4V81.4C1219.3,40.9,1186.4,8,1145.9,8z M1092.5,336c0,13-10.6,23.6-23.6,23.6H806.6
			c-13,0-23.6-10.5-23.6-23.6V137.4c0-13,10.5-23.6,23.6-23.6h262.3c13,0,23.6,10.5,23.6,23.6V336z"/>
		<linearGradient id="SVGID_18_" gradientUnits="userSpaceOnUse" x1="654.31" y1="343.4725" x2="1219.28" y2="343.4725">
			<stop  offset="0" style="stop-color:#E6E6E6;stop-opacity:0.3"/>
			<stop  offset="0.423" style="stop-color:#EFEFEF;stop-opacity:0.2154"/>
			<stop  offset="1" style="stop-color:#F2F2F2;stop-opacity:0.1"/>
		</linearGradient>
		<path class="st20" d="M1219.3,224.6v164.3c0,40.6-32.9,73.4-73.4,73.4H727.7c-40.5,0-73.4-32.9-73.4-73.4v-52.8
			c41.3-9.1,84.2-18.3,128.7-27.7V336c0,13,10.5,23.6,23.6,23.6h262.3c13,0,23.6-10.5,23.6-23.6v-88.5
			C1133.7,239.9,1176,232.2,1219.3,224.6z"/>
	</g>
	<g>
		<linearGradient id="SVGID_19_" gradientUnits="userSpaceOnUse" x1="1919.9634" y1="235.155" x2="2528.6819" y2="235.155">
			<stop  offset="0" style="stop-color:#39B54A"/>
			<stop  offset="2.436531e-02" style="stop-color:#36B34A"/>
			<stop  offset="0.2329" style="stop-color:#1EA448"/>
			<stop  offset="0.4549" style="stop-color:#0D9A46"/>
			<stop  offset="0.6977" style="stop-color:#039445"/>
			<stop  offset="1" style="stop-color:#009245"/>
		</linearGradient>
		<path class="st21" d="M2522.4,462.3h-81.9c-28.5,0-54.7-15.9-67.9-41.2l-11.8-22.6c-4.3-8.2-12.7-13.3-21.9-13.3h-137.7
			c-2.8,0-5.2-2.2-5.3-5c0-0.1,0-0.2,0-0.2v-0.1c0-4.8,0.5-9.4,1.3-14c0.9-4.6,2.2-9.1,3.8-13.4c0-0.1,0-0.1,0.1-0.2
			c0-0.1,0.1-0.1,0.1-0.2c0.1-0.2,0.1-0.3,0.2-0.4c0.1-0.2,0.2-0.4,0.2-0.6c0.2-0.3,0.3-0.7,0.4-1c0.1-0.3,0.3-0.7,0.4-1
			c0-0.1,0.1-0.2,0.1-0.3c0.1-0.2,0.2-0.4,0.3-0.5c0,0,0-0.1,0.1-0.1c0,0,0-0.1,0.1-0.2s0.1-0.1,0.1-0.2c0.2-0.3,0.3-0.7,0.5-1
			c0.4-0.7,0.8-1.5,1.2-2.3c0.2-0.4,0.4-0.7,0.6-1.1c0.2-0.3,0.3-0.6,0.5-0.9c0.3-0.5,0.5-0.9,0.8-1.4c0,0,0,0,0,0
			c9.5-16.6,32.1-45.5,74.6-47.3h0.1c1.6-0.1,3.3-0.2,5.2-0.2c6.9,0,11.9-5.6,11.9-11.9c0-1.8-0.4-3.7-1.4-5.5L2234,155.9
			c-4.1-7.8-15.3-7.8-19.4,0l-138.5,265.3c-13.2,25.3-39.4,41.2-67.9,41.2h-81.9c-4.7,0-7.7-5-5.5-9.2l187.1-358.3l0.4-0.7
			l28.1-53.8c10.4-19.9,31.1-32.5,53.6-32.5h88.8c10.3,0,19.8,5.8,24.6,14.9l24.6,47.2l0.2,0.4L2528,453.2
			C2530.1,457.3,2527.1,462.3,2522.4,462.3z"/>
		<linearGradient id="SVGID_20_" gradientUnits="userSpaceOnUse" x1="1919.9634" y1="266.405" x2="2528.6819" y2="266.405">
			<stop  offset="0" style="stop-color:#E6E6E6;stop-opacity:0.3"/>
			<stop  offset="0.423" style="stop-color:#EFEFEF;stop-opacity:0.2154"/>
			<stop  offset="1" style="stop-color:#F2F2F2;stop-opacity:0.1"/>
		</linearGradient>
		<path class="st22" d="M2522.4,462.3h-81.9c-28.5,0-54.7-15.9-67.9-41.2l-11.8-22.6c-4.3-8.2-12.7-13.3-21.9-13.3h-137.7
			c-2.8,0-5.2-2.2-5.3-5c0-0.1,0-0.2,0-0.2v-0.1c0-4.8,0.5-9.4,1.3-14c0.9-4.6,2.2-9.1,3.8-13.4c0-0.1,0-0.1,0.1-0.2
			c0-0.1,0.1-0.1,0.1-0.2c0.1-0.2,0.1-0.3,0.2-0.4c0.1-0.2,0.2-0.4,0.2-0.6c0.2-0.3,0.3-0.7,0.4-1c0.1-0.3,0.3-0.7,0.4-1
			c0-0.1,0.1-0.2,0.1-0.3c0.1-0.2,0.2-0.4,0.3-0.5c0,0,0-0.1,0.1-0.1c0,0,0-0.1,0.1-0.2s0.1-0.1,0.1-0.2c0.2-0.3,0.3-0.7,0.5-1
			c0.4-0.7,0.8-1.5,1.2-2.3c0.2-0.4,0.4-0.7,0.6-1.1c0.2-0.3,0.3-0.6,0.5-0.9c0.3-0.5,0.5-0.9,0.8-1.4c0,0,0,0,0,0
			c9.5-16.6,32.1-45.5,74.6-47.3h0.1c1.6-0.1,3.3-0.2,5.2-0.2c6.9,0,11.9-5.6,11.9-11.9c0-1.8-0.4-3.7-1.4-5.5L2234,155.9
			c-4.1-7.8-15.3-7.8-19.4,0l-138.5,265.3c-13.2,25.3-39.4,41.2-67.9,41.2h-81.9c-4.7,0-7.7-5-5.5-9.2l187.1-358.3l220.3-24.4
			L2528,453.2C2530.1,457.3,2527.1,462.3,2522.4,462.3z"/>
	</g>
	<g>
		<linearGradient id="SVGID_21_" gradientUnits="userSpaceOnUse" x1="1285.0228" y1="235.1525" x2="1901.3672" y2="235.1525">
			<stop  offset="0" style="stop-color:#39B54A"/>
			<stop  offset="2.436531e-02" style="stop-color:#36B34A"/>
			<stop  offset="0.2329" style="stop-color:#1EA448"/>
			<stop  offset="0.4549" style="stop-color:#0D9A46"/>
			<stop  offset="0.6977" style="stop-color:#039445"/>
			<stop  offset="1" style="stop-color:#009245"/>
		</linearGradient>
		<path class="st23" d="M1899.5,18.8l-117.7,117.7l-104.6,104.5c-11.9,11.9-18.6,28-18.6,44.8v160.5c0,8.8-7.1,15.9-15.9,15.9h-99.2
			c-8.8,0-15.9-7.1-15.9-15.9V285.9c0-16.8-6.7-32.9-18.5-44.8l-55.7-55.7L1286.9,18.8c-4-4-1.2-10.9,4.5-10.9h138.7
			c18.3,0,35.8,7.3,48.7,20.2l85.7,85.7l15,15c7.6,7.5,19.8,7.5,27.3,0l15-15l85.7-85.7C1720.5,15.3,1738,8,1756.3,8H1895
			C1900.7,8,1903.5,14.8,1899.5,18.8z"/>
		<linearGradient id="SVGID_22_" gradientUnits="userSpaceOnUse" x1="1453.4099" y1="299.4275" x2="1781.8" y2="299.4275">
			<stop  offset="0" style="stop-color:#E6E6E6;stop-opacity:0.3"/>
			<stop  offset="0.423" style="stop-color:#EFEFEF;stop-opacity:0.2154"/>
			<stop  offset="1" style="stop-color:#F2F2F2;stop-opacity:0.1"/>
		</linearGradient>
		<path class="st24" d="M1453.4,185.4c104.6-16.7,214.1-33.1,328.4-48.8l-104.6,104.5c-11.9,11.9-18.6,28-18.6,44.8v160.5
			c0,8.8-7.1,15.9-15.9,15.9h-99.2c-8.8,0-15.9-7.1-15.9-15.9V285.9c0-16.8-6.7-32.9-18.5-44.8L1453.4,185.4z"/>
	</g>
	<g>
		<linearGradient id="SVGID_23_" gradientUnits="userSpaceOnUse" x1="2598.4099" y1="235.1525" x2="3157.3501" y2="235.1525">
			<stop  offset="0" style="stop-color:#39B54A"/>
			<stop  offset="2.436531e-02" style="stop-color:#36B34A"/>
			<stop  offset="0.2329" style="stop-color:#1EA448"/>
			<stop  offset="0.4549" style="stop-color:#0D9A46"/>
			<stop  offset="0.6977" style="stop-color:#039445"/>
			<stop  offset="1" style="stop-color:#009245"/>
		</linearGradient>
		<path class="st25" d="M3157.4,75.2v38.7h-0.1v99.6c0,35.5-28.8,64.3-64.3,64.3h-13c-9.4,0-15.5,9.9-11.2,18.3l77.7,151.4
			c3.5,6.8-1.4,14.8-9,14.8h-102.2c-11.2,0-21.5-6.2-26.9-16l-84.6-156.1c-4.1-7.7-12.1-12.4-20.8-12.4h-142.9
			c-11.7,0-21.2,9.5-21.2,21.2v153.1c0,5.6-4.5,10.2-10.2,10.2h-120.1c-5.6,0-10.2-4.6-10.2-10.2V260.4c0-41.2,33.4-74.6,74.6-74.6
			h330.2c10.1,0,18.3-8.2,18.3-18.3v-33.3c0-11.3-9.1-20.4-20.4-20.4h-389.8c-7,0-12.8-5.7-12.8-12.8V88c0-16.5,5-31.9,13.6-44.7
			c0,0,0,0,0,0C2626.4,22,2650.8,8,2678.4,8h411.7c0.2,0,0.4,0,0.6,0c4.1,0,8.2,0.4,12.1,1.2C3133.9,15.1,3157.4,42.4,3157.4,75.2z"
			/>
		<linearGradient id="SVGID_24_" gradientUnits="userSpaceOnUse" x1="2598.4099" y1="235.1575" x2="3157.3501" y2="235.1575">
			<stop  offset="0" style="stop-color:#E6E6E6;stop-opacity:0.3"/>
			<stop  offset="0.423" style="stop-color:#EFEFEF;stop-opacity:0.2154"/>
			<stop  offset="1" style="stop-color:#F2F2F2;stop-opacity:0.1"/>
		</linearGradient>
		<path class="st26" d="M3157.4,75.2v38.7h-0.1v99.6c0,35.5-28.8,64.3-64.3,64.3h-13c-9.4,0-15.5,9.9-11.2,18.3l77.7,151.4
			c3.5,6.8-1.4,14.8-9,14.8h-102.2c-11.2,0-21.5-6.2-26.9-16l-84.6-156.1c-4.1-7.7-12.1-12.4-20.8-12.4h-142.9
			c-11.7,0-21.2,9.5-21.2,21.2v153.1c0,5.6-4.5,10.2-10.2,10.2h-120.1c-5.6,0-10.2-4.6-10.2-10.2V260.4c0-41.2,33.4-74.6,74.6-74.6
			h330.2c10.1,0,18.3-8.2,18.3-18.3v-33.3c0-11.3-9.1-20.4-20.4-20.4h-389.8c-7,0-12.8-5.7-12.8-12.8V88c0-16.5,5-31.9,13.6-44.7
			c0,0,0,0,0,0C2766,29.8,2925.6,17.9,3090.8,8c4.1,0,8.2,0.4,12.1,1.2C3133.9,15.1,3157.4,42.4,3157.4,75.2z"/>
	</g>
	<g>
		<linearGradient id="SVGID_25_" gradientUnits="userSpaceOnUse" x1="3285.4399" y1="235.1525" x2="3812.6699" y2="235.1525">
			<stop  offset="0" style="stop-color:#39B54A"/>
			<stop  offset="2.436531e-02" style="stop-color:#36B34A"/>
			<stop  offset="0.2329" style="stop-color:#1EA448"/>
			<stop  offset="0.4549" style="stop-color:#0D9A46"/>
			<stop  offset="0.6977" style="stop-color:#039445"/>
			<stop  offset="1" style="stop-color:#009245"/>
		</linearGradient>
		<path class="st27" d="M3812.7,80.3v309.2c0,40.2-32.6,72.8-72.8,72.8h-439c-8.5,0-15.5-6.9-15.5-15.5V269.7c0-39.7,32.2-72,72-72
			h37.9c10.1,0,18.2,8.2,18.2,18.2v120.4c0,8.6,7,15.6,15.6,15.6h232.3c11,0,20-9,20-20V137c0-12.8-10.3-23.1-23.1-23.1h-301.7
			c-39.3,0-71.2-31.9-71.2-71.3V20.4c0-6.9,5.6-12.4,12.4-12.4h442.5C3780.3,8,3812.7,40.4,3812.7,80.3z"/>
		<linearGradient id="SVGID_26_" gradientUnits="userSpaceOnUse" x1="3285.4399" y1="235.1525" x2="3812.6699" y2="235.1525">
			<stop  offset="0" style="stop-color:#E6E6E6;stop-opacity:0.3"/>
			<stop  offset="0.423" style="stop-color:#EFEFEF;stop-opacity:0.2154"/>
			<stop  offset="1" style="stop-color:#F2F2F2;stop-opacity:0.1"/>
		</linearGradient>
		<path class="st28" d="M3812.7,80.3v309.2c0,40.2-32.6,72.8-72.8,72.8h-439c-8.5,0-15.5-6.9-15.5-15.5V269.7c0-39.7,32.2-72,72-72
			h37.9c10.1,0,18.2,8.2,18.2,18.2v120.4c0,8.6,7,15.6,15.6,15.6h232.3c11,0,20-9,20-20V137c0-12.8-10.3-23.1-23.1-23.1h-301.7
			c-39.3,0-71.2-31.9-71.2-71.3V20.4c0-6.9,5.6-12.4,12.4-12.4h442.5C3780.3,8,3812.7,40.4,3812.7,80.3z"/>
	</g>
</g>
<g id="Calque_4" class="st0">
</g>
</svg>
